<?xml version="1.0" encoding="utf-8"?><svg width="24" height="24" fill="none" xmlns="http://www.w3.org/2000/svg" viewBox="0 0 24 24"><path d="M22.765 16.78H5.991a1.198 1.198 0 010-2.397H18.5a3.594 3.594 0 003.486-2.72l1.977-7.78a1.198 1.198 0 00-.216-1.03 1.198 1.198 0 00-.982-.456H5.703A3.596 3.596 0 002.324 0H1.198a1.198 1.198 0 000 2.397h1.126a1.198 1.198 0 011.199.911l.071.575 2.073 8.103a3.597 3.597 0 00-3.432 3.757 3.6 3.6 0 003.756 3.434h.215A3.597 3.597 0 009.586 24a3.593 3.593 0 003.378-4.823h2.828a3.599 3.599 0 001.72 4.417 3.593 3.593 0 005.037-4.417h.216a1.198 1.198 0 100-2.397zM21.231 4.794l-1.57 6.281a1.199 1.199 0 01-1.197.91H8.124l-1.798-7.19h14.905zM9.585 21.574a1.198 1.198 0 110-2.395 1.198 1.198 0 010 2.396zm9.586 0a1.198 1.198 0 110-2.395 1.198 1.198 0 010 2.396z" fill="#fff"/></svg>