<?xml version="1.0" encoding="utf-8"?><svg width="256" height="40" fill="none" xmlns="http://www.w3.org/2000/svg" viewBox="0 0 256 40"><path d="M49.84 21.524c0-8.22 5.406-12.989 11.62-12.989 1.382.01 2.75.299 4.02.85a10.34 10.34 0 013.376 2.36l-2.925 3.6a6.17 6.17 0 00-4.301-1.972c-3.414 0-6.043 2.992-6.043 8.025s2.356 8.026 5.952 8.026a6.412 6.412 0 002.652-.623 6.457 6.457 0 002.161-1.67l2.936 3.52a10.136 10.136 0 01-3.572 2.733c-1.378.631-2.88.943-4.393.912-6.27-.057-11.482-4.425-11.482-12.771zM70.733 24.345c0-6.11 4.335-9.894 8.83-9.894 5.337 0 7.965 3.91 7.965 9.057.002.831-.074 1.66-.227 2.477H76.047a4.594 4.594 0 001.646 2.957 4.529 4.529 0 003.213 1.01 7.742 7.742 0 004.05-1.239l1.832 3.37a12.067 12.067 0 01-6.645 2.133c-5.337.023-9.41-3.623-9.41-9.87zm12.073-2.063c0-2.076-.9-3.566-3.118-3.566-1.752 0-3.266 1.146-3.641 3.566h6.759zM89.804 14.91h4.552l.375 2.43h.137a8.607 8.607 0 012.726-2.031 8.552 8.552 0 013.294-.812c4.073 0 5.814 2.9 5.814 7.612V33.78h-5.553V22.774c0-2.705-.717-3.565-2.276-3.565-1.4 0-2.275.665-3.413 1.834V33.78h-5.656V14.91zM111.403 26.913V19.3h-2.561v-4.173l2.868-.218.649-5.01h4.551v5.01h4.552V19.3h-4.552v7.556c0 2.132.967 2.992 2.424 2.992a5.764 5.764 0 001.787-.356l.876 4.059a13.043 13.043 0 01-4.165.688c-4.597 0-6.429-2.947-6.429-7.326zM124.352 14.91h4.552l.398 3.302h.137c1.365-2.522 3.414-3.76 5.314-3.76a5.247 5.247 0 012.276.378l-.979 4.803a7.835 7.835 0 00-2.025-.298c-1.411 0-3.13.917-4.131 3.44v10.937h-5.542V14.91zM137.46 28.541c0-3.978 3.13-6.122 10.537-6.878a2.627 2.627 0 00-.838-2.07 2.59 2.59 0 00-2.12-.66 10.191 10.191 0 00-4.893 1.675l-1.98-3.669a15.186 15.186 0 017.965-2.488c4.791 0 7.442 2.752 7.442 8.541v10.789h-4.551l-.399-1.938h-.136a8.211 8.211 0 01-5.451 2.396 5.36 5.36 0 01-4.029-1.616 5.454 5.454 0 01-1.547-4.082zm10.537-.24v-3.302c-3.937.539-5.223 1.674-5.223 3.095 0 1.215.82 1.811 2.14 1.811a4.174 4.174 0 003.083-1.605zM157.455 27.91V7.137h5.553V28.14c0 1.146.546 1.582 1.001 1.582.231.008.461-.019.683-.08l.66 4.127a7.133 7.133 0 01-2.788.47c-3.801 0-5.109-2.51-5.109-6.328zM170.074 7.893h3.937l4.928 13.838c.614 1.765 1.206 3.588 1.82 5.388h.16c.614-1.8 1.138-3.622 1.775-5.388l4.87-13.838h3.937V33.78h-3.038V19.53c0-2.293.25-5.366.41-7.659h-.16l-2.036 5.905-4.837 13.39h-2.162l-4.859-13.39-2.036-5.905h-.16c.16 2.293.41 5.4.41 7.659v14.25h-2.959V7.893zM196.406 26.753V14.612h3.221V26.34c0 3.565 1.081 5.09 3.595 5.09 1.946 0 3.289-.963 5.087-3.221V14.612h3.22V33.78h-2.651l-.273-3.004h-.114c-1.764 2.087-3.664 3.44-6.27 3.44-4.04.034-5.815-2.568-5.815-7.463zM215.067 31.59l1.581-2.132a8.571 8.571 0 005.622 2.293c2.492 0 3.732-1.341 3.732-2.98 0-1.973-2.276-2.844-4.347-3.635-2.663-.974-5.689-2.293-5.689-5.537 0-3.061 2.435-5.434 6.554-5.434a9.66 9.66 0 015.917 2.143l-1.536 2.087a7.162 7.162 0 00-4.347-1.708c-2.39 0-3.493 1.284-3.493 2.751 0 1.823 2.059 2.511 4.221 3.325 2.743 1.043 5.804 2.167 5.804 5.813 0 3.106-2.458 5.732-6.942 5.732a11.396 11.396 0 01-7.077-2.717zM232.204 8.57c.11-.512.39-.971.795-1.3a2.265 2.265 0 012.859 0c.405.329.685.788.795 1.3-.11.512-.39.971-.795 1.3a2.265 2.265 0 01-2.859 0 2.296 2.296 0 01-.795-1.3zm.592 6.042h3.209V33.78h-3.209V14.61zM240.284 24.219c0-6.397 4.29-10.077 9.103-10.077a7.937 7.937 0 015.565 2.293l-1.662 2.052a5.477 5.477 0 00-3.766-1.697c-3.414 0-5.974 2.992-5.974 7.383s2.389 7.326 5.883 7.326a6.87 6.87 0 004.506-1.857l1.388 2.166a9.201 9.201 0 01-6.144 2.442c-5.098 0-8.899-3.68-8.899-10.031zM0 20.046a19.988 19.988 0 005.03 13.32 19.706 19.706 0 0012.579 6.516c4.847.534 9.72-.758 13.679-3.626a19.913 19.913 0 007.765-11.911H33.82a.965.965 0 00-.478.252 8.47 8.47 0 00-1.024 1.273.89.89 0 01-.842.447c-.41 0-.83 0-1.274.057v1.72c.318.103.66.195.99.32a.753.753 0 01.477.872c0 .424 0 .86-.455 1.066a4.52 4.52 0 01-3.414 0 .73.73 0 01-.466-.825c0-.436-.091-.917.455-1.146.341-.127.683-.23 1.036-.344v-1.605l-5.622.263v1.41l.148.07c1.23.366 1.036.595.99 1.707 0 .195-.318.459-.546.562-.804.32-1.7.32-2.503 0-.683-.23-.58-.79-.604-1.318a.818.818 0 01.171-.55.807.807 0 01.49-.299c.163-.066.33-.123.5-.172V26.73l-5.473.252v1.146l.364.104c1.263.332 1.07.619 1.024 1.616 0 .195-.25.447-.444.539a4.173 4.173 0 01-3.277 0c-.558-.218-.444-.711-.466-1.147a.737.737 0 01.5-.802c.307-.126.615-.206.945-.31v-1.032l-6.623.322V12.754l6.623.321v-1.031c-.33-.104-.638-.184-.945-.31a.73.73 0 01-.5-.803c0-.447-.092-.94.466-1.146a4.127 4.127 0 013.277 0c.194.092.444.344.444.527 0 1.01.239 1.296-1.024 1.628l-.364.104v1.146l5.473.252v-1.376l-.5-.171a.807.807 0 01-.49-.299.819.819 0 01-.17-.55c0-.539-.08-1.089.603-1.318a3.39 3.39 0 012.503 0c.228.103.535.367.546.562 0 1.146.24 1.33-.99 1.708l-.148.069v1.41l5.622.263v-1.72c-.353-.114-.695-.217-1.036-.343-.546-.195-.432-.677-.455-1.147a.739.739 0 01.466-.825 4.52 4.52 0 013.414 0c.512.206.444.642.455 1.066a.762.762 0 01-.477.871l-.99.321v1.72c.443 0 .864.069 1.274 0a.882.882 0 01.842.447c.3.457.643.883 1.024 1.273.135.123.3.21.478.252h5.234a19.913 19.913 0 00-7.763-11.91A19.645 19.645 0 0017.614.118 19.706 19.706 0 005.035 6.628 19.988 19.988 0 000 19.943v.103z" fill="#fff"/></svg>