<?xml version="1.0" encoding="utf-8"?><svg width="21" height="20" fill="none" xmlns="http://www.w3.org/2000/svg" viewBox="0 0 21 20"><path d="M10.014 7.52a2.48 2.48 0 100 4.96 2.48 2.48 0 000-4.96zm9.93-2.45a6.527 6.527 0 00-.42-2.26 4 4 0 00-2.32-2.32 6.53 6.53 0 00-2.26-.42C13.654 0 13.274 0 10.014 0s-3.64 0-4.93.07a6.53 6.53 0 00-2.26.42 4 4 0 00-2.32 2.32 6.53 6.53 0 00-.42 2.26C.014 6.36.014 6.74.014 10s0 3.64.07 4.93a6.86 6.86 0 00.42 2.27c.2.526.51 1.004.91 1.4.398.402.88.713 1.41.91a6.532 6.532 0 002.26.42c1.29.07 1.67.07 4.93.07s3.64 0 4.93-.07a6.532 6.532 0 002.26-.42 3.89 3.89 0 001.41-.91c.4-.396.71-.874.91-1.4a6.598 6.598 0 00.42-2.27c.07-1.29.07-1.67.07-4.93s0-3.64-.07-4.93zm-2.54 8a5.73 5.73 0 01-.39 1.8 3.86 3.86 0 01-2.13 2.13 5.73 5.73 0 01-1.81.35h-6.12a5.73 5.73 0 01-1.81-.35 3.51 3.51 0 01-1.31-.86 3.51 3.51 0 01-.82-1.27 5.49 5.49 0 01-.34-1.81V10 6.94a5.49 5.49 0 01.34-1.81 3.51 3.51 0 01.86-1.31c.36-.36.793-.64 1.27-.82a5.73 5.73 0 011.81-.35h6.12a5.73 5.73 0 011.81.35 3.51 3.51 0 011.31.86c.362.359.642.792.82 1.27a5.73 5.73 0 01.35 1.81V10c0 2.06.07 2.27.04 3.06v.01zm-1.6-7.44a2.38 2.38 0 00-1.41-1.41 4 4 0 00-1.38-.22h-6a4 4 0 00-1.38.26 2.38 2.38 0 00-1.41 1.36A4.27 4.27 0 004.014 7v6c.01.471.098.938.26 1.38a2.38 2.38 0 001.41 1.41 4.27 4.27 0 001.33.26h6a4 4 0 001.38-.26 2.38 2.38 0 001.41-1.41 4 4 0 00.26-1.38v-3-3c0-.472-.088-.94-.26-1.38v.01zm-5.79 8.19A3.81 3.81 0 016.204 10a3.82 3.82 0 113.81 3.82zm4-6.89a.9.9 0 010-1.79.9.9 0 010 1.79z" fill="#fff"/></svg>