<?xml version="1.0" encoding="utf-8"?><svg width="21" height="18" fill="none" xmlns="http://www.w3.org/2000/svg" viewBox="0 0 21 18"><path d="M20.014 2.81a8.49 8.49 0 01-2.36.64 4.13 4.13 0 001.81-2.27 8.21 8.21 0 01-2.61 1 4.1 4.1 0 00-7 3.74 11.64 11.64 0 01-8.45-4.29 4.16 4.16 0 00-.55 2.07 4.09 4.09 0 001.82 3.41 4.05 4.05 0 01-1.86-.51v.05a4.1 4.1 0 003.3 4 3.933 3.933 0 01-1.1.17 4.896 4.896 0 01-.77-.07 4.11 4.11 0 003.83 2.84 8.22 8.22 0 01-6.06 1.7 11.57 11.57 0 006.29 1.85 11.59 11.59 0 0011.71-11.68v-.53a8.43 8.43 0 002-2.12z" fill="#fff"/></svg>